<svg id="Layer_1" enable-background="new 0 0 128 128" height="512" viewBox="0 0 128 128" width="512" xmlns="http://www.w3.org/2000/svg"><path d="m95.4 105.5 13.2-4.4 13.1 4.4-13.1-75.6z" fill="#5d86f9"/><path d="m95.4 105.5h-89.1l13.1-75.6h89.2z" fill="#f1f1fb"/><path d="m85.9 94.3h-66.2l6.7-38.3h66.2z" fill="#e1d8fa"/><path d="m19.4 29.9-2.5 14.9h89.1l2.6-14.9z" fill="#f9502e"/><path d="m8.3 83.6.8-4.4c.2-1 1.1-1.6 2-1.4s1.6 1.1 1.4 2l-.8 4.4c-.2.9-1.1 1.6-2 1.4s-1.5-1.1-1.4-2zm11.4 12.4c-1.1 0-1.9-1-1.7-2.1l6.6-38.2c.1-.8.9-1.4 1.7-1.5h66.2c1.1 0 1.9 1 1.7 2l-6.6 38.2c-.1.8-.9 1.4-1.7 1.4h-66.2zm2.1-3.5h9.7l1.6-9.2h-9.7zm2.2-12.7h9.7l1.6-9.2h-9.7zm17.1-22-1.6 9.2h9.7l1.6-9.2zm13.2 0-1.6 9.2h9.7l1.6-9.2zm13.3 0-1.6 9.2h9.7l1.6-9.2zm20.7 12.7h-9.7l-1.6 9.3h9.7zm-13.3 0h-9.7l-1.6 9.2h9.7zm-3.8 22 1.6-9.2h-9.7l-1.6 9.2zm-13.2 0 1.6-9.2h-9.7l-1.6 9.2zm-13.3 0 1.6-9.2h-9.7l-1.6 9.2zm15.5-12.7 1.6-9.2h-9.7l-1.6 9.2zm-21.3-9.3-1.6 9.2h9.7l1.6-9.2zm47.2 12.8h-9.7l-1.6 9.2h9.7zm4.4-25.5h-9.7l-1.6 9.2h9.7zm-64.3 9.2h9.7l1.6-9.2h-9.7zm94.9 40.1-12.6-4.2s-9.8 3.3-12.6 4.2c-.1 0-.4.1-.5.1h-89.1c-1.1 0-1.9-1-1.7-2.1l2.2-12.5c.2-1 1.1-1.6 2-1.4s1.6 1.1 1.4 2l-1.8 10.5h85.6l10-57.2h-85.7l-4.1 23.7c-.2 1-1.1 1.6-2 1.4s-1.6-1.1-1.4-2l7-40c.1-.8.9-1.4 1.7-1.5h9.8c1-5 5.8-8.2 10.7-7.3 3.7.7 6.5 3.6 7.3 7.3h7.7c1-5 5.8-8.2 10.7-7.3 3.7.7 6.5 3.6 7.3 7.3h7.8c1-5 5.8-8.2 10.7-7.3 3.7.7 6.5 3.6 7.3 7.3h9.8c.8 0 1.6.6 1.7 1.4 0 .5 3 17.3 3.3 19.1.2 1-.5 1.9-1.4 2-.9.2-1.9-.5-2-1.4l-1.6-9.1-10.9 62.8 10.4-3.5c.4-.1.7-.1 1.1 0l10.4 3.5-7.7-44.4c-.2-1 .5-1.9 1.4-2 1-.2 1.9.5 2 1.4l8.2 47.3c.1 1.2-1 2.4-2.4 1.9zm-36.7-78.9h10.8c-1-3-4.2-4.6-7.1-3.6-1.8.5-3.2 1.9-3.7 3.6zm-25.8 0h10.8c-1-3-4.2-4.6-7.1-3.6-1.8.5-3.1 1.9-3.7 3.6zm-25.8 0h10.8c-1-3-4.2-4.6-7.1-3.6-1.8.5-3.1 1.9-3.7 3.6zm71.7 14.8 2-11.3h-22.1c.8 2.3 2.9 3.9 5.4 3.9 1 0 1.8.8 1.8 1.8s-.8 1.8-1.8 1.8c-4.4 0-8.2-3.1-9-7.4h-22.2c.8 2.3 2.9 3.9 5.4 3.9 1 0 1.8.8 1.8 1.8s-.8 1.6-1.8 1.6c-4.4 0-8.2-3.1-9-7.4h-22.2c.8 2.3 2.9 3.9 5.4 3.9 1 0 1.8.8 1.8 1.8s-.8 1.8-1.8 1.8c-4.4 0-8.2-3.1-9-7.4h-8.3l-2 11.3h85.6z"/></svg>