<?xml version="1.0" encoding="UTF-8" standalone="no"?>
<svg
   xmlns:dc="http://purl.org/dc/elements/1.1/"
   xmlns:cc="http://creativecommons.org/ns#"
   xmlns:rdf="http://www.w3.org/1999/02/22-rdf-syntax-ns#"
   xmlns:svg="http://www.w3.org/2000/svg"
   xmlns="http://www.w3.org/2000/svg"
   xmlns:sodipodi="http://sodipodi.sourceforge.net/DTD/sodipodi-0.dtd"
   xmlns:inkscape="http://www.inkscape.org/namespaces/inkscape"
   width="135.46667mm"
   height="135.46376mm"
   viewBox="0 0 135.46667 135.46376"
   version="1.1"
   id="svg2924"
   inkscape:version="1.0.2-2 (e86c870879, 2021-01-15)"
   sodipodi:docname="docum_done.svg">
  <defs
     id="defs2918" />
  <sodipodi:namedview
     id="base"
     pagecolor="#ffffff"
     bordercolor="#666666"
     borderopacity="1.0"
     inkscape:pageopacity="0.0"
     inkscape:pageshadow="2"
     inkscape:zoom="0.24748737"
     inkscape:cx="-209.34188"
     inkscape:cy="549.60871"
     inkscape:document-units="mm"
     inkscape:current-layer="layer1"
     inkscape:document-rotation="0"
     showgrid="false"
     fit-margin-top="0"
     fit-margin-left="0"
     fit-margin-right="0"
     fit-margin-bottom="0"
     inkscape:window-width="1350"
     inkscape:window-height="1033"
     inkscape:window-x="502"
     inkscape:window-y="0"
     inkscape:window-maximized="0" />
  <metadata
     id="metadata2921">
    <rdf:RDF>
      <cc:Work
         rdf:about="">
        <dc:format>image/svg+xml</dc:format>
        <dc:type
           rdf:resource="http://purl.org/dc/dcmitype/StillImage" />
        <dc:title></dc:title>
      </cc:Work>
    </rdf:RDF>
  </metadata>
  <g
     inkscape:label="Layer 1"
     inkscape:groupmode="layer"
     id="layer1"
     transform="translate(-16.933327,-18.446693)">
    <g
       id="g2952"
       transform="matrix(0.26457662,0,0,0.26457662,16.933327,18.44537)">
      <g
         clip-rule="evenodd"
         fill-rule="evenodd"
         id="g2934">
        <path
           d="m 60,150.01 h 94.125 c 7.624,0 13.935,5.152 16.599,11.81 L 190,210.01 H 380 V 20.005 c 0,-5.5 -4.5,-10 -10,-10 H 70 c -5.5,0 -10,4.5 -10,10 z"
           fill="#ffffff"
           id="path2926" />
        <path
           d="m 170.724,161.821 c -2.663,-6.658 -8.975,-11.81 -16.599,-11.81 H 60 20 c -5.5,0 -10,4.5 -10,10 v 290.001 c 0,11 9,20 20,20 h 328.697 c -76.571,-73.433 -53.402,-170.846 -53.402,-170.846 24.552,0 78.417,-19.074 96.706,-37.158 6.141,6.072 16.292,12.255 27.998,17.789 V 230.01 c 0,-10.999 -9,-20 -20,-20 h -30 -190 z"
           fill="#ffc144"
           id="path2928" />
        <path
           d="m 402.002,262.007 c -18.289,18.084 -72.154,37.158 -96.706,37.158 0,0 -23.169,97.413 53.402,170.846 11.881,11.394 26.163,22.21 43.305,31.996 127.623,-72.855 96.707,-202.842 96.707,-202.842 -16.309,0 -45.551,-8.416 -68.709,-19.367 -11.707,-5.536 -21.858,-11.719 -27.999,-17.791 z M 350.504,366.37 c 7.809,-7.81 20.472,-7.81 28.281,0 l 11.761,11.761 34.671,-34.671 c 7.809,-7.81 20.472,-7.81 28.281,0 7.81,7.809 7.81,20.472 0,28.281 l -48.812,48.812 c -7.809,7.81 -20.472,7.81 -28.281,0 l -25.902,-25.902 c -7.808,-7.809 -7.808,-20.471 0.001,-28.281 z"
           fill="#6d91ac"
           id="path2930" />
        <path
           d="m 390.547,378.132 -11.761,-11.761 c -7.809,-7.81 -20.472,-7.81 -28.281,0 -7.81,7.809 -7.81,20.472 0,28.281 l 25.902,25.902 c 7.81,7.81 20.472,7.81 28.281,0 L 453.5,371.742 c 7.81,-7.809 7.81,-20.472 0,-28.281 -7.809,-7.81 -20.472,-7.81 -28.281,0 z"
           fill="#cbe558"
           id="path2932" />
      </g>
      <g
         id="g2950">
        <path
           d="m 508.437,296.851 c -1.071,-4.506 -5.097,-7.686 -9.729,-7.686 -13.617,0 -38.048,-6.781 -58.708,-15.76 V 230.01 c 0,-16.542 -13.458,-30 -30,-30 H 390 V 20.005 c 0,-11.028 -8.972,-20 -20,-20 H 70 c -11.028,0 -20,8.972 -20,20 V 140.01 H 20 c -11.028,0 -20,8.972 -20,20 v 290.001 c 0,16.542 13.458,30 30,30 h 324.815 c 11.763,10.871 25.703,21.246 42.23,30.681 1.536,0.877 3.247,1.315 4.958,1.315 1.711,0 3.421,-0.439 4.958,-1.315 69.205,-39.506 93.157,-95.484 101.064,-135.487 8.547,-43.242 0.748,-76.94 0.412,-78.354 z M 70,20.005 H 370 V 200.01 H 196.771 l -16.762,-41.904 c -4.397,-10.993 -14.557,-18.097 -25.883,-18.097 H 70 Z M 20,450.011 V 440.01 h 51.996 c 5.523,0 10,-4.477 10,-10 0,-5.523 -4.477,-10 -10,-10 H 20 v -260 h 134.126 c 3.526,0 6.214,2.774 7.314,5.524 l 19.277,48.19 c 1.519,3.797 5.196,6.286 9.285,6.286 h 220 c 5.514,0 10,4.486 10,10 v 33.151 c -4.433,-2.744 -8.201,-5.53 -10.967,-8.266 -3.896,-3.853 -10.166,-3.853 -14.063,0 -16.401,16.218 -67.452,34.269 -89.675,34.269 -4.631,0 -8.657,3.18 -9.729,7.686 -0.336,1.414 -8.135,35.112 0.413,78.354 4.886,24.721 15.907,55.542 39.941,84.807 H 30 c -5.514,0 -10,-4.486 -10,-10 z m 468.404,-78.685 c -9.983,50.501 -39.038,90.54 -86.402,119.088 C 354.9,462.022 325.898,422.25 315.759,372.12 c -5.673,-28.053 -3.625,-52.039 -1.985,-63.479 25.801,-2.903 66.551,-17.472 88.229,-33.571 21.682,16.103 62.445,30.674 88.246,33.573 1.634,11.289 3.662,34.821 -1.845,62.683 z"
           id="path2936" />
        <path
           d="M 106.501,60.006 H 333.5 c 5.523,0 10,-4.477 10,-10 0,-5.523 -4.477,-10 -10,-10 H 106.501 c -5.523,0 -10,4.477 -10,10 0,5.523 4.477,10 10,10 z"
           id="path2938" />
        <path
           d="m 343.5,90.006 c 0,-5.523 -4.477,-10 -10,-10 H 106.501 c -5.523,0 -10,4.477 -10,10 0,5.523 4.477,10 10,10 H 333.5 c 5.522,0 10,-4.477 10,-10 z"
           id="path2940" />
        <path
           d="M 333.5,120.006 H 220 c -5.523,0 -10,4.477 -10,10 0,5.523 4.477,10 10,10 h 113.5 c 5.523,0 10,-4.477 10,-10 0,-5.523 -4.478,-10 -10,-10 z"
           id="path2942" />
        <path
           d="m 333.5,160.006 h -59 c -5.523,0 -10,4.477 -10,10 0,5.523 4.477,10 10,10 h 59 c 5.523,0 10,-4.477 10,-10 0,-5.523 -4.478,-10 -10,-10 z"
           id="path2944" />
        <path
           d="m 439.358,327.603 c -8.013,0 -15.546,3.121 -21.212,8.787 l -27.6,27.6 -4.69,-4.69 c -5.666,-5.666 -13.199,-8.786 -21.212,-8.786 -8.013,0 -15.546,3.121 -21.211,8.786 -5.666,5.666 -8.787,13.199 -8.787,21.212 0,8.013 3.121,15.546 8.786,21.212 l 25.902,25.902 c 5.848,5.848 13.53,8.771 21.211,8.771 7.681,0 15.364,-2.924 21.212,-8.771 l 48.812,-48.812 c 11.696,-11.696 11.696,-30.728 0,-42.423 -5.664,-5.667 -13.197,-8.788 -21.211,-8.788 z m 7.07,37.067 -48.811,48.812 c -3.898,3.898 -10.241,3.897 -14.139,0 L 357.576,387.58 c -1.889,-1.888 -2.928,-4.399 -2.928,-7.069 0,-2.671 1.04,-5.181 2.928,-7.069 1.888,-1.889 4.399,-2.928 7.069,-2.928 2.67,0 5.181,1.04 7.069,2.928 l 11.761,11.761 c 1.875,1.875 4.419,2.929 7.071,2.929 2.652,0 5.196,-1.054 7.071,-2.929 l 34.671,-34.671 c 1.888,-1.889 4.399,-2.928 7.069,-2.928 2.671,0 5.181,1.04 7.069,2.928 3.9,3.898 3.9,10.24 0.002,14.138 z"
           id="path2946" />
        <path
           d="m 116.993,420.01 c -5.523,0 -10,4.477 -10,10 0,5.523 4.477,10 10,10 H 117 c 5.523,0 9.997,-4.477 9.997,-10 0,-5.523 -4.481,-10 -10.004,-10 z"
           id="path2948" />
      </g>
    </g>
    <path
       style="fill:#57b7eb;fill-opacity:1;stroke:#4891d3;stroke-width:0"
       d="M 251.42857,242.1061 C 237.83822,208.18018 235.6769,207.15319 177.85714,207.1473 l -43.57143,-0.004 V 148.57143 90 h 148.57143 148.57143 v 88.57143 88.57143 l -85,-0.0368 -85,-0.0368 z m 156.69992,-0.51745 c 1.63971,-11.61674 -5.97108,-14.44579 -38.86241,-14.44579 -16.30296,0 -32.12865,1.33095 -35.1682,2.95767 -5.36401,2.87073 -7.55708,14.05932 -3.54263,18.07377 1.09111,1.0911 18.76968,1.62682 39.28572,1.19048 37.13278,-0.78975 37.30636,-0.82501 38.28752,-7.77613 z m 0,-40 c 1.84284,-13.0558 -4.45345,-14.44912 -65.10315,-14.40678 -30.73536,0.0214 -58.65647,0.78318 -62.0469,1.69273 -7.11688,1.90923 -9.99131,9.61835 -6.14737,16.48708 2.37309,4.24048 9.54485,4.66316 67.48353,3.97724 l 64.82826,-0.76749 z m 0,-40 c 1.99859,-14.15926 -0.44404,-14.44579 -123.14812,-14.44579 -73.06924,0 -115.90944,1.06072 -119.45392,2.95767 -5.33333,2.85431 -7.56442,14.05198 -3.5914,18.025 1.06428,1.06427 56.67142,1.59999 123.57143,1.19047 l 121.63638,-0.74457 z m 0,-40 c 1.99859,-14.15926 -0.44404,-14.44579 -123.14812,-14.44579 -73.06924,0 -115.90944,1.06072 -119.45392,2.95767 -5.33333,2.85431 -7.56442,14.05198 -3.5914,18.025 1.06428,1.06427 56.67142,1.59999 123.57143,1.19047 l 121.63638,-0.74457 z"
       id="path3142"
       transform="scale(0.26458333)" />
  </g>
</svg>
