<?xml version="1.0" encoding="UTF-8" standalone="no"?>
<svg
   xmlns:dc="http://purl.org/dc/elements/1.1/"
   xmlns:cc="http://creativecommons.org/ns#"
   xmlns:rdf="http://www.w3.org/1999/02/22-rdf-syntax-ns#"
   xmlns:svg="http://www.w3.org/2000/svg"
   xmlns="http://www.w3.org/2000/svg"
   xmlns:sodipodi="http://sodipodi.sourceforge.net/DTD/sodipodi-0.dtd"
   xmlns:inkscape="http://www.inkscape.org/namespaces/inkscape"
   width="169.33339mm"
   height="169.30449mm"
   viewBox="0 0 169.33339 169.30449"
   version="1.1"
   id="svg8"
   inkscape:version="1.0.2-2 (e86c870879, 2021-01-15)"
   sodipodi:docname="docum_edit.svg">
  <defs
     id="defs2" />
  <sodipodi:namedview
     id="base"
     pagecolor="#ffffff"
     bordercolor="#666666"
     borderopacity="1.0"
     inkscape:pageopacity="0.0"
     inkscape:pageshadow="2"
     inkscape:zoom="0.7"
     inkscape:cx="28.423784"
     inkscape:cy="241.63287"
     inkscape:document-units="mm"
     inkscape:current-layer="g123"
     inkscape:document-rotation="0"
     showgrid="false"
     fit-margin-top="0"
     fit-margin-left="0"
     fit-margin-right="0"
     fit-margin-bottom="0"
     inkscape:window-width="1920"
     inkscape:window-height="1007"
     inkscape:window-x="-9"
     inkscape:window-y="-9"
     inkscape:window-maximized="1" />
  <metadata
     id="metadata5">
    <rdf:RDF>
      <cc:Work
         rdf:about="">
        <dc:format>image/svg+xml</dc:format>
        <dc:type
           rdf:resource="http://purl.org/dc/dcmitype/StillImage" />
        <dc:title></dc:title>
      </cc:Work>
    </rdf:RDF>
  </metadata>
  <g
     inkscape:label="Layer 1"
     inkscape:groupmode="layer"
     id="layer1"
     style="display:inline"
     transform="translate(-14.363066,-15.133469)">
    <g
       id="g123"
       transform="matrix(0.35271769,0,0,0.35271769,14.363066,15.119691)">
      <path
         d="m 24,8.039062 h 320 c 8.83594,0 16,7.164063 16,16 V 456.03906 c 0,8.83985 -7.16406,16 -16,16 H 24 c -8.835938,0 -16,-7.16015 -16,-16 V 24.039062 c 0,-8.835937 7.164062,-16 16,-16 z m 0,0"
         fill="#57b7eb"
         id="path10" />
      <path
         d="m 208,408.03906 c -79.52734,0 -144,-64.46875 -144,-144 V 8.039062 H 24 c -8.835938,0 -16,7.164063 -16,16 V 456.03906 c 0,8.83985 7.164062,16 16,16 h 320 c 8.83594,0 16,-7.16015 16,-16 v -48 z m 0,0"
         fill="#4891d3"
         id="path12" />
      <path
         d="m 80,56.039062 h 208 v 32 H 80 Z m 0,0"
         fill="#f9e109"
         id="path14" />
      <path
         d="M 264,128.03906 H 104 c -4.417969,0 -8,-3.57812 -8,-8 0,-4.41797 3.582031,-8 8,-8 h 160 c 4.41797,0 8,3.58203 8,8 0,4.42188 -3.58203,8 -8,8 z m 0,0"
         fill="#39519d"
         id="path16" />
      <path
         d="M 312,184.03906 H 136 c -4.41797,0 -8,-3.57812 -8,-8 0,-4.41797 3.58203,-8 8,-8 h 176 c 4.41797,0 8,3.58203 8,8 0,4.42188 -3.58203,8 -8,8 z m 0,0"
         fill="#39519d"
         id="path18" />
      <path
         d="M 224,232.03906 H 64 c -4.417969,0 -8,-3.57812 -8,-8 0,-4.41797 3.582031,-8 8,-8 h 160 c 4.41797,0 8,3.58203 8,8 0,4.42188 -3.58203,8 -8,8 z m 0,0"
         fill="#39519d"
         id="path20" />
      <path
         d="m 312,232.03906 h -56 c -4.41797,0 -8,-3.57812 -8,-8 0,-4.41797 3.58203,-8 8,-8 h 56 c 4.41797,0 8,3.58203 8,8 0,4.42188 -3.58203,8 -8,8 z m 0,0"
         fill="#39519d"
         id="path22" />
      <path
         d="M 144,272.03906 H 64 c -4.417969,0 -8,-3.57812 -8,-8 0,-4.41797 3.582031,-8 8,-8 h 80 c 4.41797,0 8,3.58203 8,8 0,4.42188 -3.58203,8 -8,8 z m 0,0"
         fill="#39519d"
         id="path24" />
      <path
         d="m 232,272.03906 h -56 c -4.41797,0 -8,-3.57812 -8,-8 0,-4.41797 3.58203,-8 8,-8 h 56 c 4.41797,0 8,3.58203 8,8 0,4.42188 -3.58203,8 -8,8 z m 0,0"
         fill="#39519d"
         id="path26" />
      <path
         d="M 288,88.039062 H 80 v -32 z m 0,0"
         fill="#fcbc04"
         id="path28" />
      <path
         d="m 160,380.03906 c 0,33.14063 -26.86328,60 -60,60 -33.136719,0 -60,-26.85937 -60,-60 0,-33.13672 26.863281,-60 60,-60 33.13672,0 60,26.86328 60,60 z m 0,0"
         fill="#f9e109"
         id="path30" />
      <path
         d="m 100,440.03906 c 25.98047,-0.004 49.00391,-16.73437 57.03906,-41.4375 -35.20703,-13.35937 -63.785154,-39.98437 -79.597654,-74.16015 -26.605468,10.78906 -41.835937,38.91406 -36.335937,67.09375 5.496093,28.17578 30.1875,48.50781 58.894531,48.5039 z m 0,0"
         fill="#fcbc04"
         id="path32" />
      <path
         d="m 200,416.03906 c -0.87109,0.0312 -1.73828,-0.10547 -2.55859,-0.39844 -4.16407,-1.40625 -6.41407,-5.90625 -5.04297,-10.07812 l 19.67968,-59.04297 c 2.41016,-7.20312 9.55469,-11.71875 17.09375,-10.80859 7.54297,0.91015 13.40235,7 14.02735,14.57031 l 2.72265,32 2.87891,-4.87891 c 3.05859,-5.33593 8.90625,-8.44531 15.03906,-8 6.03516,0.50391 11.26953,4.375 13.51953,10 l 5.1211,12.63672 23.28125,-29.59765 c 1.32031,-1.67188 3.2539,-2.7461 5.37109,-2.98828 2.11719,-0.23829 4.2461,0.375 5.90625,1.70703 3.4336,2.75 4.00391,7.75 1.28125,11.19921 l -23.35937,29.67969 c -3.5625,4.45313 -9.21875,6.67188 -14.85547,5.83203 -5.63672,-0.83984 -10.39844,-4.61718 -12.50391,-9.91015 l -4.96094,-12.5586 -2.96093,4.87891 c -3.48438,5.92188 -10.35938,8.95703 -17.08203,7.54297 C 235.875,396.41016 230.80469,390.86328 230,384.03906 L 227.28125,351.5625 208,410.28125 c -1.02734,3.53125 -4.32813,5.90625 -8,5.75781 z m 0,0"
         fill="#39519d"
         id="path34" />
      <path
         d="m 97.921875,402.76172 c -4.226563,0.004 -8.28125,-1.66406 -11.28125,-4.64063 L 69.679688,381.16016 c -1.515626,-1.5 -2.367188,-3.54688 -2.367188,-5.67969 0,-2.13281 0.851562,-4.17578 2.367188,-5.67969 3.121093,-3.10156 8.160156,-3.10156 11.28125,0 l 16.960937,16.96094 28.316405,-28.24219 c 3.17578,-2.71875 7.90625,-2.53515 10.86328,0.42188 2.95313,2.95312 3.13672,7.68359 0.41797,10.85937 l -28.23828,28.32031 c -3.01953,2.9961 -7.10937,4.66407 -11.359375,4.64063 z m 0,0"
         fill="#39519d"
         id="path36" />
      <path
         d="m 403.25,163.44922 41.57031,24 -72,124.70703 -41.57031,-24 z m 0,0"
         fill="#fcbc04"
         id="path38" />
      <path
         d="m 368.80078,223.08203 -37.60156,64.95703 41.60156,24 12.16016,-21.19922 c -9.01953,-21.5625 -14.47657,-44.44531 -16.16016,-67.75781 z m 0,0"
         fill="#e59730"
         id="path40" />
      <path
         d="m 372.80078,312.19922 -41.60156,-24 -17.03906,45.52344 27.67968,16 z m 0,0"
         fill="#a1d51c"
         id="path42" />
      <path
         d="m 314.12891,333.75781 27.71093,16 -8,13.85938 c -4.41797,7.65234 -14.20312,10.27343 -21.85547,5.85547 -7.65234,-4.41797 -10.27343,-14.20313 -5.85546,-21.85547 z m 0,0"
         fill="#e59730"
         id="path44" />
      <path
         d="m 427.17969,121.91406 41.57031,24 -24,41.57031 -41.57031,-24 z m 0,0"
         fill="#fcbc04"
         id="path46" />
      <path
         d="m 463.96484,106.20313 c 7.65235,4.41796 10.27344,14.20312 5.85547,21.85546 l -8,13.85938 -27.71094,-16 8,-13.85938 c 4.41797,-7.65234 14.20313,-10.27343 21.85547,-5.85546 z m 0,0"
         fill="#c4f236"
         id="path48" />
      <path
         d="m 392.32031,182.46484 8,-13.85547 41.57031,24 -8,13.85547 z m 0,0"
         fill="#e59730"
         id="path50" />
      <path
         d="m 432.48047,280.76172 c -1.40235,0.008 -2.78125,-0.35156 -4,-1.03906 -1.83985,-1.07032 -3.17578,-2.82813 -3.71485,-4.88282 -0.54296,-2.05859 -0.24218,-4.24609 0.83594,-6.07812 l 32,-55.44141 c 1.0625,-1.83984 1.35156,-4.02734 0.79688,-6.07812 -0.55078,-2.06641 -1.90235,-3.82031 -3.75782,-4.88281 l -69.28125,-40 c -3.80859,-2.19532 -5.1289,-7.05469 -2.96093,-10.87891 1.05859,-1.85156 2.80859,-3.20313 4.86718,-3.76172 2.05469,-0.55469 4.25,-0.26562 6.09375,0.80078 l 69.28125,40 c 5.51563,3.17578 9.54297,8.41406 11.19922,14.5625 1.65625,6.15625 0.79297,12.71875 -2.39843,18.23828 l -32,55.44141 c -1.4375,2.48437 -4.09375,4.01172 -6.96094,4 z m 0,0"
         fill="#39519d"
         id="path52" />
      <path
         d="m 456,112.03906 c 0.0391,-2.69922 0.41797,-5.38672 1.12109,-8 -6.10547,-0.41406 -11.91406,2.69532 -14.96093,8 l -8,13.84375 27.67968,16 4,-6.88281 C 459.53906,129.03125 455.97656,120.72266 456,112.03906 Z m 0,0"
         fill="#a1d51c"
         id="path54" />
      <g
         fill="#39519d"
         id="g78"
         style="fill:#4891d3;fill-opacity:1">
        <path
           d="M 479.19922,113.80078 C 477.54687,107.65625 473.51562,102.41797 468,99.242188 462.48047,96.050781 455.91797,95.1875 449.76172,96.839844 c -6.14844,1.65625 -11.38672,5.683596 -14.5625,11.199216 l -4,6.96094 c -3.80078,-2.18359 -8.65625,-0.89844 -10.87891,2.88281 L 400,152.51953 l -6.96094,-4 c -1.84375,-1.06641 -4.03906,-1.35547 -6.09375,-0.80078 -2.05859,0.55859 -3.80859,1.91016 -4.86719,3.76172 -2.16796,3.82422 -0.84765,8.68359 2.96094,10.8789 l 6.96094,4 -68,117.83985 -16.80078,44.88281 -8,14.95703 c -4.6836,8.14844 -4.1836,18.27735 1.28125,25.92188 l -18,22.07812 -5.03906,-12.63672 c -2.27344,-5.63281 -7.53516,-9.49218 -13.58594,-9.96484 -6.05469,-0.47656 -11.85547,2.51562 -14.97656,7.72266 l -2.87891,4.8789 -2.71875,-32 c -0.625,-7.57031 -6.48828,-13.65625 -14.02734,-14.57031 -7.54297,-0.91016 -14.6836,3.60937 -17.09375,10.8125 l -19.67969,59.03906 c -1.375,4.17578 0.875,8.67578 5.03906,10.08203 0.78125,0.36328 1.62109,0.58203 2.48047,0.63672 3.4375,0.0117 6.5,-2.17969 7.60156,-5.4375 L 227.19922,351.5625 230,384.03906 c 0.57812,6.92969 5.55859,12.69141 12.33203,14.26172 6.77344,1.57031 13.78125,-1.41406 17.34766,-7.37891 l 2.96093,-4.88281 4.96094,12.5625 c 2.10547,5.29297 6.86719,9.07031 12.50391,9.91016 5.63672,0.83984 11.29297,-1.38281 14.85547,-5.83203 l 18.64062,-23.59766 c 2.0625,0.53906 4.1875,0.80859 6.32032,0.80078 8.57421,0.0664 16.53515,-4.44922 20.8789,-11.84375 l 8,-13.35937 30.48047,-37.03907 L 448,198.35937 l 6.96094,4 c 1.85547,1.0625 3.20703,2.81641 3.75781,4.88282 0.55469,2.05078 0.26562,4.23828 -0.79688,6.07812 l -32,55.44141 c -1.20703,1.82031 -1.61718,4.05469 -1.13281,6.1875 0.48438,2.1289 1.81641,3.96875 3.69141,5.08984 1.84375,1.07031 4.03906,1.35938 6.09375,0.80469 2.05859,-0.55859 3.80859,-1.91016 4.86719,-3.76172 l 32,-55.44141 c 3.1914,-5.51953 4.05468,-12.08203 2.39843,-18.23828 -1.65625,-6.14843 -5.68359,-11.38672 -11.19922,-14.5625 l -6.96093,-4 20,-34.64062 c 2.18359,-3.80078 0.89843,-8.65235 -2.87891,-10.87891 l 4,-6.96094 c 3.27734,-5.60546 4.14453,-12.30078 2.39844,-18.55859 z m -30.16016,2.23828 c 1.0586,-1.85156 2.81641,-3.20703 4.88281,-3.75781 2.05469,-0.50781 4.22657,-0.22266 6.07813,0.80078 1.85547,1.0586 3.20703,2.81641 3.76172,4.87891 0.50781,2.05469 0.22265,4.22656 -0.80078,6.07812 l -4,6.96094 -13.92188,-8 z M 340,339.40234 l -4,-2.32031 -11.83984,-6.88281 11.35937,-30.39844 25.19922,14.55859 z m -24,23.11719 c -3.37891,-2.35547 -4.41797,-6.88672 -2.39844,-10.48047 l 4,-6.95703 13.91797,8 -4,6.87891 c -1.12109,1.94531 -3.0039,3.32812 -5.19531,3.8164 -2.19141,0.48438 -4.48438,0.0312 -6.32422,-1.25781 z m 53.83984,-61.27734 -27.67968,-16 64,-110.88282 27.67968,16 z m 72,-124.72266 -27.67968,-16 16,-27.67969 27.67968,16 z m 0,0"
           id="path56"
           style="fill:#4891d3;fill-opacity:1" />
        <path
           d="M 126.23828,358.51953 97.921875,386.76172 80.960938,369.80078 c -3.121094,-3.10156 -8.160157,-3.10156 -11.28125,0 -1.515626,1.50391 -2.367188,3.54688 -2.367188,5.67969 0,2.13281 0.851562,4.17969 2.367188,5.67969 l 16.960937,16.96093 c 3,2.97657 7.054687,4.64453 11.28125,4.64063 4.250005,0.0234 8.339845,-1.64453 11.359375,-4.64063 l 28.23828,-28.32031 c 2.71875,-3.17578 2.53516,-7.90625 -0.41797,-10.85937 -2.95703,-2.95704 -7.6875,-3.14063 -10.86328,-0.42188 z m 0,0"
           id="path58"
           style="fill:#4891d3;fill-opacity:1" />
        <path
           d="m 32,380.03906 c 0,37.5586 30.445312,68 68,68 37.55469,0 68,-30.4414 68,-68 0,-4.41797 -3.58203,-8 -8,-8 -4.41797,0 -8,3.58203 -8,8 0,28.71875 -23.28125,52 -52,52 -28.71875,0 -52,-23.28125 -52,-52 0,-28.71875 23.28125,-52 52,-52 11.25781,-0.0312 22.21484,3.6211 31.19922,10.40235 3.53515,2.65234 8.55078,1.93359 11.19922,-1.60157 2.65234,-3.53515 1.9375,-8.54687 -1.59766,-11.19922 C 120.19531,310.1875 92.625,307.70312 69.589844,319.21875 46.550781,330.73828 32,354.28516 32,380.03906 Z m 0,0"
           id="path60"
           style="fill:#4891d3;fill-opacity:1" />
        <path
           d="m 288,64.039062 c 4.41797,0 8,-3.578124 8,-8 0,-4.417968 -3.58203,-8 -8,-8 H 80 c -4.417969,0 -8,3.582032 -8,8 v 32 c 0,4.421876 3.582031,8 8,8 h 208 c 4.41797,0 8,-3.578124 8,-8 0,-4.417968 -3.58203,-8 -8,-8 H 88 v -16 z m 0,0"
           id="path62"
           style="fill:#4891d3;fill-opacity:1" />
        <path
           d="m 104,112.03906 c -4.417969,0 -8,3.58203 -8,8 0,4.42188 3.582031,8 8,8 h 160 c 4.41797,0 8,-3.57812 8,-8 0,-4.41797 -3.58203,-8 -8,-8 z m 0,0"
           id="path64"
           style="fill:#4891d3;fill-opacity:1" />
        <path
           d="M 312,168.03906 H 136 c -4.41797,0 -8,3.58203 -8,8 0,4.42188 3.58203,8 8,8 h 176 c 4.41797,0 8,-3.57812 8,-8 0,-4.41797 -3.58203,-8 -8,-8 z m 0,0"
           id="path66"
           style="fill:#4891d3;fill-opacity:1" />
        <path
           d="m 232,224.03906 c 0,-4.41797 -3.58203,-8 -8,-8 H 64 c -4.417969,0 -8,3.58203 -8,8 0,4.42188 3.582031,8 8,8 h 160 c 4.41797,0 8,-3.57812 8,-8 z m 0,0"
           id="path68"
           style="fill:#4891d3;fill-opacity:1" />
        <path
           d="m 312,216.03906 h -56 c -4.41797,0 -8,3.58203 -8,8 0,4.42188 3.58203,8 8,8 h 56 c 4.41797,0 8,-3.57812 8,-8 0,-4.41797 -3.58203,-8 -8,-8 z m 0,0"
           id="path70"
           style="fill:#4891d3;fill-opacity:1" />
        <path
           d="m 144,272.03906 c 4.41797,0 8,-3.57812 8,-8 0,-4.41797 -3.58203,-8 -8,-8 H 64 c -4.417969,0 -8,3.58203 -8,8 0,4.42188 3.582031,8 8,8 z m 0,0"
           id="path72"
           style="fill:#4891d3;fill-opacity:1" />
        <path
           d="m 176,272.03906 h 56 c 4.41797,0 8,-3.57812 8,-8 0,-4.41797 -3.58203,-8 -8,-8 h -56 c -4.41797,0 -8,3.58203 -8,8 0,4.42188 3.58203,8 8,8 z m 0,0"
           id="path74"
           style="fill:#4891d3;fill-opacity:1" />
        <path
           d="m 360,368.03906 c -4.41797,0 -8,3.58203 -8,8 v 80 c 0,4.42188 -3.58203,8 -8,8 H 24 c -4.417969,0 -8,-3.57812 -8,-8 V 24.039062 c 0,-4.417968 3.582031,-8 8,-8 h 320 c 4.41797,0 8,3.582032 8,8 V 174.28125 c 0,4.41797 3.58203,8 8,8 4.41797,0 8,-3.58203 8,-8 V 24.039062 C 368,10.785156 357.25391,0.0390625 344,0.0390625 H 24 c -13.253906,0 -24,10.7460935 -24,23.9999995 V 456.03906 c 0,13.25781 10.746094,24 24,24 h 320 c 13.25391,0 24,-10.74219 24,-24 v -80 c 0,-4.41797 -3.58203,-8 -8,-8 z m 0,0"
           id="path76"
           style="fill:#4891d3;fill-opacity:1" />
      </g>
      <path
         style="fill:#4891d3;fill-opacity:1;stroke-width:1.01015"
         d="m 174.00296,631.10536 c -32.82792,-7.23897 -54.96433,-34.50507 -55.03577,-67.78928 -0.0489,-22.80061 13.55886,-46.84821 32.92966,-58.19305 10.18866,-5.96717 9.59486,-6.10691 15.48482,3.64422 7.04147,11.6575 17.97914,25.63546 28.08873,35.89641 l 8.40491,8.53075 -9.36306,9.40214 -9.36305,9.40215 -12.26361,-12.23417 c -11.49862,-11.47101 -12.55393,-12.26689 -16.91755,-12.75873 -5.74929,-0.64803 -9.26717,1.37559 -11.44265,6.58226 -2.66252,6.3723 -0.96299,9.29046 14.09397,24.19991 7.77487,7.69869 15.03015,13.98677 17.16954,14.88067 4.8316,2.01877 14.11042,1.98384 18.21474,-0.0686 1.77806,-0.88914 8.75088,-7.08234 15.49516,-13.76267 l 12.26234,-12.14607 4.91026,3.38187 c 2.70064,1.86003 9.76743,5.909 15.70397,8.99771 l 10.7937,5.61583 -2.39492,5.89258 c -11.92111,29.33128 -45.98745,47.31423 -76.77119,40.52603 z"
         id="path125"
         transform="matrix(0.75012777,0,0,0.75012777,-40.721139,-42.866268)" />
      <path
         style="fill:#4891d3;fill-opacity:1;stroke-width:1.01015"
         d="m 169.45728,629.2021 c -24.30276,-7.32014 -42.08196,-25.58993 -47.87113,-49.19209 -2.06276,-8.40975 -2.10141,-23.92627 -0.0792,-31.79557 3.47221,-13.5119 12.58457,-28.38368 22.40649,-36.5684 6.11692,-5.0973 16.06187,-10.72402 17.4442,-9.8697 0.57969,0.35827 3.83458,4.8258 7.23309,9.92784 7.77874,11.6779 16.86,23.14312 26.55029,33.52011 l 7.54645,8.08122 -8.76762,8.84112 -8.76762,8.84112 -10.62539,-10.46786 c -12.92535,-12.73372 -14.44499,-13.78037 -20.00794,-13.78037 -5.43402,0 -7.83614,1.23307 -9.79989,5.03054 -2.09439,4.0501 -1.90621,7.95423 0.58527,12.14205 2.90369,4.88072 25.43142,26.69187 29.62334,28.68107 4.88397,2.3176 16.34859,2.1761 20.28856,-0.25041 1.66675,-1.0265 8.35571,-6.96316 14.86436,-13.19259 l 11.83391,-11.32623 7.38787,4.48474 c 4.06334,2.46661 10.78415,6.18542 14.93514,8.26402 4.151,2.07861 7.72376,3.94038 7.93949,4.13728 0.21572,0.19689 -1.51659,4.33606 -3.84958,9.19814 -8.15245,16.99017 -26.72793,31.72486 -45.53505,36.11992 -9.82761,2.29663 -24.14593,1.94187 -33.33503,-0.82595 z"
         id="path127"
         transform="matrix(0.75012777,0,0,0.75012777,-40.721139,-42.866268)" />
      <path
         style="fill:#4891d3;fill-opacity:1;stroke-width:1.01015"
         d="m 169.45728,629.2021 c -24.27491,-7.31175 -42.17391,-25.69915 -47.88547,-49.19209 -2.04695,-8.41955 -2.07865,-23.95903 -0.0649,-31.79557 3.37299,-13.12578 12.4589,-28.17103 21.93443,-36.32095 5.49004,-4.72199 16.55687,-10.9573 17.93549,-10.10527 0.58155,0.35942 3.84477,4.82475 7.25159,9.92295 8.06747,12.07271 14.48741,20.18927 25.29682,31.98212 l 8.81063,9.61222 -8.79147,8.84074 -8.79146,8.84074 -10.12069,-9.94564 c -13.62706,-13.39138 -14.94645,-14.30183 -20.72577,-14.30183 -3.80302,0 -5.31467,0.53788 -7.41538,2.63859 -3.30788,3.30789 -4.3607,8.47463 -2.59532,12.73664 1.39776,3.37448 18.08352,20.68426 26.58282,27.57696 4.73723,3.84177 5.31914,4.03487 13.13198,4.35774 7.71631,0.31888 8.40186,0.17091 12.21571,-2.63673 2.22234,-1.63602 8.90996,-7.60883 14.86138,-13.27292 l 10.82076,-10.29834 9.38229,5.50971 c 5.16025,3.03033 11.99605,6.78661 15.19066,8.34728 3.19461,1.56067 5.80838,3.20754 5.80838,3.65972 0,0.45218 -1.87205,4.56224 -4.16011,9.13348 -8.33016,16.64252 -26.95414,31.2404 -45.33737,35.5364 -9.82761,2.29663 -24.14593,1.94187 -33.33503,-0.82595 z"
         id="path129"
         transform="matrix(0.75012777,0,0,0.75012777,-40.721139,-42.866268)" />
      <path
         style="fill:#4891d3;fill-opacity:1;stroke-width:1.01015"
         d=""
         id="path131"
         transform="matrix(0.75012777,0,0,0.75012777,-40.721139,-42.866268)" />
      <path
         style="fill:#4891d3;fill-opacity:1;stroke-width:1.01015"
         d="m 169.45728,629.2021 c -24.1982,-7.28865 -42.50229,-26.05215 -47.9247,-49.12755 -1.99383,-8.48488 -2.00643,-24.15194 -0.0256,-31.86011 3.37299,-13.12578 12.4589,-28.17103 21.93443,-36.32095 5.49004,-4.72199 16.55687,-10.9573 17.93549,-10.10527 0.58155,0.35942 3.8542,4.82475 7.27256,9.92295 8.0535,12.01115 15.43293,21.26449 25.8541,32.41943 l 8.41531,9.00783 -8.88252,8.92387 -8.88252,8.92387 -9.61602,-9.42687 c -13.94447,-13.67017 -15.55238,-14.81978 -20.7277,-14.81978 -8.77845,0 -14.06711,8.4249 -10.01362,15.95178 2.03078,3.77093 18.36911,20.63655 26.2367,27.08345 4.52038,3.70411 5.2563,3.95466 12.47311,4.24655 9.78197,0.39564 10.84142,-0.19866 26.30115,-14.75355 l 12.12295,-11.4134 9.37134,5.50326 c 5.15423,3.02679 11.9851,6.78017 15.17971,8.34084 3.19461,1.56067 5.80838,3.19615 5.80838,3.6344 0,0.43826 -1.6981,4.32104 -3.77356,8.62841 -5.49548,11.40521 -18.69388,24.49545 -30.57163,30.32108 -4.72246,2.31621 -11.54099,4.90179 -15.15229,5.74571 -9.82761,2.29663 -24.14593,1.94187 -33.33503,-0.82595 z"
         id="path133"
         transform="matrix(0.75012777,0,0,0.75012777,-40.721139,-42.866268)" />
      <path
         style="fill:#4891d3;fill-opacity:1;stroke-width:1.01015"
         d="m 169.45728,629.2021 c -14.05454,-4.23332 -25.07614,-11.35891 -34.15542,-22.08188 -10.20732,-12.05523 -15.30047,-26.3127 -15.32713,-42.90585 -0.0202,-12.58783 1.29855,-18.20099 7.11064,-30.26541 3.97895,-8.25929 6.38137,-11.73277 12.29439,-17.77555 7.34301,-7.50415 19.87277,-15.69809 21.9971,-14.38519 0.58155,0.35942 3.72003,4.61345 6.97441,9.4534 7.80737,11.61122 16.8864,22.96741 26.66878,33.35774 l 7.97108,8.46644 -8.88239,8.92374 -8.88239,8.92373 -10.28202,-10.00364 c -11.90813,-11.58573 -15.69212,-14.16112 -20.81437,-14.16634 -8.01576,-0.008 -13.2127,8.7448 -9.3979,15.82844 1.0033,1.86302 7.80501,9.22872 15.11491,16.36821 14.77546,14.431 17.13496,15.74051 27.20621,15.09922 7.31649,-0.46588 7.35474,-0.49123 23.53736,-15.6008 l 11.33376,-10.58223 10.44457,6.02882 c 5.74452,3.31586 12.57675,7.06472 15.18275,8.33081 2.60599,1.26609 4.73817,2.694 4.73817,3.17314 0,0.47913 -1.68876,4.36603 -3.75279,8.63754 -5.48346,11.34803 -18.74801,24.45598 -30.5924,30.23127 -11.51185,5.61314 -18.88029,7.34615 -30.95546,7.2805 -7.30328,-0.0397 -11.97418,-0.66211 -17.53186,-2.33611 z"
         id="path135"
         transform="matrix(0.75012777,0,0,0.75012777,-40.721139,-42.866268)" />
      <path
         style="fill:#4891d3;fill-opacity:1;stroke-width:1.01015"
         d="m 169.45728,629.22489 c -24.36085,-7.26435 -42.43114,-25.87306 -47.98081,-49.41045 -1.75266,-7.43342 -1.96765,-22.67974 -0.42653,-30.24728 0.59957,-2.94416 3.36906,-10.08198 6.15442,-15.86181 4.25793,-8.83555 6.2959,-11.73226 12.79946,-18.1928 7.48428,-7.43477 19.25325,-15.03443 21.31208,-13.762 0.52214,0.3227 4.43811,5.63249 8.70217,11.79954 9.04653,13.08388 16.12602,21.75367 26.07215,31.92886 l 7.16082,7.32573 -8.9819,9.02371 -8.9819,9.02371 -10.6929,-10.17451 c -12.46993,-11.86539 -15.47905,-13.92917 -20.31712,-13.9343 -6.75324,-0.007 -11.84356,6.23679 -10.57915,12.97671 0.55197,2.94225 3.35902,6.31914 14.58162,17.54174 8.10096,8.10095 15.42391,14.5356 17.55615,15.42651 4.82394,2.01557 14.09926,1.9606 18.09806,-0.10726 1.7397,-0.89963 8.75756,-6.83522 15.59525,-13.19019 l 12.43216,-11.55449 12.38632,7.05502 c 6.81248,3.88027 13.63638,7.61597 15.16424,8.30157 1.52785,0.68561 2.77792,1.65619 2.77792,2.15685 0,0.50067 -1.68876,4.40518 -3.75279,8.67669 -5.49706,11.37616 -18.77714,24.536 -30.5924,30.31539 -11.491,5.62079 -18.50748,7.26182 -30.76935,7.19638 -7.44256,-0.0397 -12.15823,-0.65542 -17.71797,-2.31332 z"
         id="path137"
         transform="matrix(0.75012777,0,0,0.75012777,-40.721139,-42.866268)" />
      <path
         style="fill:#4891d3;fill-opacity:1;stroke-width:1.01015"
         d=""
         id="path139"
         transform="matrix(0.75012777,0,0,0.75012777,-40.721139,-42.866268)" />
      <path
         style="fill:#4891d3;fill-opacity:1;stroke-width:1.01015"
         d="m 76.222902,694.78868 c -8.830537,-3.1581 -14.743079,-8.81867 -19.114787,-18.30017 l -2.303151,-4.99515 V 376.93203 82.370692 l 3.535534,-6.93118 c 2.559994,-5.018698 4.929163,-7.992796 8.586297,-10.77867 9.72695,-7.409643 -9.068861,-6.882197 234.897585,-6.591672 l 219.67106,0.261593 4.54569,2.379944 c 6.19342,3.24264 11.76224,8.739227 14.98702,14.792649 l 2.69065,5.050763 0.27064,106.378161 0.27063,106.37816 -2.97085,2.97086 c -4.17662,4.17661 -10.14957,4.18416 -14.31564,0.0181 l -2.95276,-2.95274 V 190.18321 c 0,-113.269287 0.32321,-107.337887 -6.02785,-110.622145 -2.6175,-1.35356 -24.88891,-1.532327 -190.90173,-1.532327 H 139.1527 V 211.16594 344.30315 l -3.43943,1.24372 c -1.89168,0.68404 -4.09262,2.2527 -4.89096,3.48592 -1.70255,2.62995 -3.46933,9.22918 -1.81729,6.7879 0.56396,-0.83338 1.03233,-2.27032 1.04084,-3.19321 0.008,-0.92287 1.41405,-2.85479 3.12343,-4.29314 l 3.10796,-2.61518 h 110.01319 110.01319 l 3.27597,2.92708 c 2.71101,2.4223 3.27598,3.65957 3.27598,7.17445 0,3.51487 -0.56497,4.75215 -3.27598,7.17444 l -3.27597,2.92708 H 246.6516 c -75.55516,0 -110.2764,-0.33416 -111.65997,-1.07462 -1.10437,-0.59104 -2.89107,-2.52295 -3.97043,-4.29315 -1.14074,-1.87086 -1.96405,-2.54009 -1.96625,-1.59826 -0.005,2.31717 4.41469,6.76885 7.48627,7.53976 l 2.61148,0.65545 v 15.54785 c 0,15.06637 -0.065,15.54785 -2.09801,15.54785 -2.62991,0 -8.03042,5.28276 -7.92376,7.75099 0.061,1.41106 0.20953,1.4888 0.6311,0.33023 0.30324,-0.83337 1.71611,-2.76529 3.1397,-4.29314 l 2.58834,-2.77792 h 57.46741 57.46741 l 2.95275,2.95275 c 4.26974,4.26974 4.09651,9.23751 -0.48176,13.81578 l -3.43452,3.43452 -55.91194,-0.0149 c -42.66359,-0.0113 -56.51034,-0.31389 -58.43733,-1.27674 -1.38896,-0.69403 -3.32017,-2.84652 -4.29158,-4.78334 -1.3206,-2.63304 -1.76659,-2.99575 -1.76776,-1.43763 -0.002,2.39469 4.48077,6.96134 7.82476,7.97152 2.48705,0.7513 2.86793,1.92421 3.78734,11.66291 1.36421,14.45026 10.17655,48.48732 12.55358,48.48732 0.4579,0 2.82162,-0.70709 5.2527,-1.5713 12.89665,-4.58458 33.50231,-5.88769 47.27804,-2.98987 17.17044,3.61192 37.18341,14.30163 39.41087,21.05088 2.54699,7.71747 -4.44362,14.91912 -12.36012,12.73327 -2.01885,-0.55744 -3.93434,-1.44018 -4.25663,-1.96166 -1.07533,-1.73994 -13.04194,-7.87518 -19.69006,-10.09504 -9.03703,-3.01754 -26.1196,-3.78963 -36.22976,-1.6375 -19.70622,4.19483 -38.3996,18.65584 -47.17496,36.49408 -8.3157,16.90387 -9.72992,36.44274 -3.9044,53.94336 5.77533,17.34985 18.41113,31.77436 35.01233,39.96864 20.54764,10.14221 41.39737,10.09054 62.37636,-0.15462 7.84545,-3.83136 11.05483,-6.15608 17.77178,-12.87302 6.66592,-6.66593 9.08022,-9.98592 12.92364,-17.77178 4.90655,-9.93952 7.66463,-20.19487 7.69479,-28.61154 0.0291,-8.12896 4.12656,-12.7828 11.25446,-12.7828 2.06928,0 4.06502,1.00439 6.16158,3.10095 l 3.10097,3.10097 -0.6287,10.28355 c -0.34577,5.65597 -1.31621,12.7837 -2.15652,15.83941 -0.84031,3.05571 -1.53322,5.82709 -1.53982,6.15864 -0.0157,0.78945 19.73947,5.59918 28.74826,6.99925 3.87308,0.60192 7.09159,1.18325 7.15223,1.29187 0.0606,0.1086 0.54297,1.78021 1.07181,3.71469 1.3517,4.94434 6.6807,8.44193 11.83398,7.76698 4.54015,-0.59464 7.49201,-2.94402 9.41848,-7.49615 l 1.38936,-3.28299 46.20093,-0.0395 c 39.74005,-0.034 45.7617,-0.23072 43.06017,-1.40666 -5.80486,-2.52675 -9.78554,-7.70234 -13.87147,-18.03538 -2.13413,-5.39711 -4.01866,-9.81289 -4.18785,-9.81289 -0.16918,0 -1.79386,2.31614 -3.61041,5.14697 -4.10463,6.39653 -9.24852,9.88772 -15.6887,10.64802 -10.52423,1.24247 -19.97922,-4.58599 -22.45938,-13.84489 -1.23318,-4.60372 -2.87915,-19.81346 -3.86723,-35.73547 -0.30844,-4.97014 -0.86115,-9.84854 -1.22824,-10.84088 -0.42747,-1.15557 -5.49876,12.705 -14.10528,38.55175 -11.82922,35.52502 -13.80166,40.66213 -16.47695,42.91323 -3.48743,2.93447 -5.82017,3.18027 -9.94399,1.04776 -3.68958,-1.90796 -6.07207,-5.27381 -6.07207,-8.57832 0,-3.51238 26.61929,-83.06951 29.1596,-87.14935 9.15037,-14.69588 31.31952,-12.07501 36.82026,4.35295 1.25417,3.7456 2.78058,15.97838 2.89285,23.18366 0.013,0.83337 0.49026,6.06091 1.0606,11.61675 0.57035,5.55584 1.00683,10.89702 0.96996,11.86929 -0.0968,2.55127 0.37552,2.22683 2.94074,-2.0203 2.15423,-3.56665 8.2876,-11.23949 8.42176,-10.53559 0.0339,0.17795 1.42537,-0.23535 3.09212,-0.91844 4.28309,-1.75537 13.54689,-1.55016 17.27519,0.38267 5.19012,2.69068 9.00386,8.02625 13.0574,18.26783 2.11669,5.34797 4.11273,9.70345 4.43564,9.67885 0.32291,-0.0246 5.89822,-6.6266 12.38958,-14.67109 l 11.80249,-14.62636 -2.70449,-5.7845 c -2.19636,-4.69772 -2.70571,-7.24971 -2.71109,-13.58332 -0.006,-7.72048 0.0677,-7.94205 7.38631,-22.06013 4.69893,-9.06443 11.25275,-24.5895 17.98503,-42.60395 5.82564,-15.58847 11.43386,-29.98083 12.4627,-31.98303 1.02885,-2.00221 11.74051,-20.68671 23.80369,-41.52111 56.23191,-97.11849 65.3802,-113.04729 65.37083,-113.82221 -0.005,-0.45656 -2.66985,-2.45514 -5.92073,-4.44131 -7.69475,-4.70118 -9.65417,-8.94412 -6.80787,-14.74181 1.34311,-2.73581 2.96956,-4.23926 5.68807,-5.25785 3.68463,-1.38062 4.03722,-1.30596 10.96019,2.32064 3.9342,2.06093 7.26844,3.60322 7.40943,3.42732 0.14098,-0.17591 6.52579,-11.05701 14.18845,-24.18023 15.20838,-26.0461 16.78241,-27.82253 23.62803,-26.66596 l 3.84635,0.64983 4.1767,-7.03043 c 7.00718,-11.79483 15.76728,-17.31193 27.51574,-17.32939 9.68078,-0.0145 15.46193,2.32448 22.23259,8.99462 11.38972,11.22063 13.03054,24.12034 4.98803,39.21452 l -4.31118,8.09121 2.34808,3.17594 c 4.1549,5.6198 3.43017,7.76529 -11.05512,32.72803 -7.34648,12.6603 -13.57385,23.58323 -13.8386,24.27316 -0.2823,0.73567 2.21581,2.8322 6.04085,5.06975 15.30334,8.95208 21.96774,23.78591 17.09339,38.047 -1.98583,5.81005 -43.52173,78.66656 -47.04941,82.52758 -5.99923,6.56608 -16.92732,1.87361 -16.92732,-7.26853 0,-1.57966 8.87272,-17.97331 22.30618,-41.21388 12.2684,-21.22497 22.55446,-40.0607 22.8579,-41.85716 0.89167,-5.27898 -1.34533,-8.98216 -7.79132,-12.89788 -3.19947,-1.94359 -6.21235,-3.5244 -6.69525,-3.51295 -0.4829,0.0114 -21.48152,35.80875 -46.66357,79.54951 l -45.78556,79.52868 -19.92863,24.27412 c -12.60366,15.35192 -22.42783,28.42211 -26.72807,35.55928 -3.88401,6.44637 -8.59078,12.81848 -10.97725,14.86121 -6.17858,5.28863 -13.90738,7.86208 -22.4296,7.46838 l -6.986,-0.32274 -13.72523,17.16365 c -10.75823,13.45337 -14.69955,17.65496 -18.23241,19.43648 l -4.50719,2.27285 h 44.15567 44.15568 V 577.9765 554.66528 l 2.95276,-2.95275 c 4.1718,-4.17181 10.13864,-4.1589 14.32852,0.031 l 2.98374,2.98374 -0.28352,59.39318 -0.28352,59.39315 -2.336,4.74254 c -2.98153,6.05309 -9.09173,12.1633 -15.14482,15.14482 l -4.74254,2.336 -220.71833,0.21175 C 116.99246,696.12509 79.416906,695.93097 76.222902,694.78868 Z M 488.38195,540.25709 c 1.59607,-1.34301 4.14569,-4.72698 5.66582,-7.51995 l 2.76386,-5.07814 -9.37637,-5.54872 c -10.53119,-6.2321 -10.07709,-6.30097 -14.45243,2.19173 -2.12553,4.12573 -2.61632,6.19526 -2.15605,9.09137 1.32104,8.31208 11.22977,12.18619 17.55517,6.86371 z m 33.04072,-46.48078 c 7.5404,-9.12874 13.70983,-16.97733 13.70983,-17.44131 0,-0.89716 -31.74377,-19.49906 -33.27476,-19.49906 -0.49683,0 -1.6203,1.93192 -2.49661,4.29315 -0.8763,2.36123 -4.31848,11.56625 -7.64929,20.45559 -3.33081,8.88934 -5.71977,16.28419 -5.3088,16.43299 0.41096,0.1488 5.2929,2.97261 10.84874,6.27511 5.55584,3.3025 10.18242,6.02181 10.28129,6.0429 0.0989,0.0211 6.34918,-7.43062 13.8896,-16.55937 z m 69.25871,-108.97805 c 23.33975,-40.4541 42.43592,-73.70713 42.43592,-73.89561 0,-0.58715 -37.46313,-22.00353 -37.81009,-21.61472 -1.03651,1.16147 -84.36413,146.24064 -84.61708,147.32419 -0.33023,1.41455 34.14842,22.23481 36.30216,21.92141 0.68924,-0.1003 20.34934,-33.28117 43.68909,-73.73527 z m 63.86944,-110.51097 c 5.95481,-10.38006 10.72778,-18.95195 10.60661,-19.04864 -0.12118,-0.0967 -8.58896,-5.02944 -18.81728,-10.96167 -14.01836,-8.13039 -18.8066,-10.46257 -19.44848,-9.47263 -5.60663,8.64678 -21.108,36.6591 -20.42935,36.9176 0.49284,0.18772 8.85104,5.04957 18.57376,10.80411 9.72271,5.75455 17.90495,10.50134 18.18274,10.54844 0.27779,0.0471 5.3772,-8.40715 11.332,-18.78721 z m 15.88887,-49.17644 c 4.01897,-7.91801 3.73917,-12.16087 -1.06876,-16.20647 -3.70481,-3.1174 -10.30887,-3.50173 -13.67845,-0.79604 -3.46909,2.78559 -8.86809,12.32093 -7.66017,13.52885 1.66815,1.66814 17.85955,10.75082 18.49644,10.3757 0.31981,-0.18838 2.07974,-3.29429 3.91094,-6.90204 z"
         id="path141"
         transform="matrix(0.75012777,0,0,0.75012777,-40.721139,-42.866268)" />
      <path
         style="fill:#4891d3;fill-opacity:1;stroke-width:0.178571"
         d="M 100.51919,585.34524 V 473.73809 h 25.06297 25.06297 l 1.11823,2.99107 c 0.61502,1.64509 1.17388,3.05192 1.24189,3.12629 0.068,0.0744 1.16371,-0.25682 2.43487,-0.73598 6.4171,-2.41889 12.65574,-4.02743 19.45407,-5.01593 2.2802,-0.33155 3.38232,-0.3636 12.5355,-0.36448 10.73902,-10e-4 11.43915,0.0407 16.62274,0.99004 13.28655,2.43343 26.41162,8.12356 37.30425,16.17257 1.76585,1.30486 2.8252,2.49846 3.62683,4.08649 2.11647,4.1927 1.30274,9.11253 -2.03015,12.27428 -3.81682,3.62083 -9.19716,4.0902 -13.37624,1.16692 -6.80168,-4.75779 -10.57042,-6.87519 -16.29007,-9.15226 -5.4026,-2.15085 -10.9032,-3.57182 -17.05357,-4.40546 -3.47815,-0.47144 -13.66687,-0.47394 -17.14286,-0.004 -8.57024,1.15817 -15.30365,3.22543 -22.76786,6.99011 -7.22527,3.64416 -12.62786,7.61166 -18.40095,13.51311 -10.86864,11.1103 -17.34837,24.73191 -19.31299,40.59958 -0.43932,3.54821 -0.43559,12.0276 0.007,15.625 0.63587,5.16987 1.6829,9.85736 3.21092,14.375 8.20937,24.27143 29.10913,42.07504 54.28051,46.23922 19.96366,3.30266 39.71164,-1.95497 55.57122,-14.79508 2.71842,-2.20087 7.67201,-7.21457 9.98369,-10.10486 6.95677,-8.698 11.56374,-18.42291 13.85617,-29.24914 0.77455,-3.65792 1.23726,-7.58087 1.42604,-12.09014 0.17768,-4.2444 0.33718,-5.12492 1.27627,-7.04548 0.79865,-1.63334 2.85513,-3.6648 4.57482,-4.51916 4.32372,-2.14804 9.18085,-1.31169 12.47947,2.14883 0.51311,0.5383 1.17884,1.4401 1.4794,2.004 0.30055,0.5639 0.66707,1.12536 0.81447,1.2477 0.14741,0.12234 0.23056,0.28304 0.18477,0.35712 -0.0458,0.0741 0.0424,0.76809 0.19595,1.54226 0.41634,2.09904 0.17801,8.01328 -0.56044,13.90758 -0.55111,4.39898 -1.8022,10.18365 -3.17612,14.68538 l -0.61247,2.00682 0.55763,0.16147 c 0.30669,0.0888 2.12459,0.61766 4.03977,1.17521 8.9517,2.60603 18.2977,4.55559 28.26229,5.89546 1.84335,0.24786 3.4186,0.45066 3.50055,0.45066 0.0819,0 0.19377,0.75068 0.2485,1.66818 0.12386,2.07601 0.68061,3.74885 1.81623,5.45707 1.05993,1.59435 2.31838,2.70305 4.06632,3.58244 1.84359,0.92751 2.968,1.13634 5.58054,1.03646 1.77959,-0.068 2.36539,-0.16518 3.39593,-0.5631 1.61591,-0.62395 2.65146,-1.29931 3.85257,-2.51255 1.37627,-1.39017 2.22157,-2.89325 2.98782,-5.31292 l 0.66425,-2.09756 18.88393,-0.004 18.88393,-0.004 v 47.85715 47.85714 H 235.4299 100.51919 Z"
         id="path143"
         transform="matrix(0.75012777,0,0,0.75012777,-40.721139,-42.866268)" />
      <path
         style="fill:#4891d3;fill-opacity:1;stroke-width:0.178571"
         d="m 183.5549,632.91787 c -3.37754,-0.29185 -5.25564,-0.51513 -7.49147,-0.89065 -27.30639,-4.58621 -49.36786,-25.23282 -55.79603,-52.2177 -1.38236,-5.803 -1.79911,-9.55626 -1.79446,-16.16071 0.004,-5.51352 0.19165,-7.69605 1.08306,-12.58929 1.67517,-9.19558 5.33828,-18.06815 10.80067,-26.16071 7.38211,-10.93665 18.26095,-19.85712 30.43879,-24.9593 l 1.43698,-0.60206 1.38428,2.48918 c 0.76136,1.36904 1.35353,2.51992 1.31595,2.55751 -0.0376,0.0376 -0.37181,-0.3723 -0.74273,-0.91086 -1.36692,-1.9847 -2.67172,-2.75592 -4.25976,-2.51778 -2.1249,0.31865 -10.31689,5.14708 -14.85662,8.75662 -10.91509,8.67859 -19.50714,21.7012 -23.56891,35.7224 -1.6217,5.59814 -2.39752,10.58435 -2.54224,16.33929 -0.10548,4.1942 0.10687,7.89776 0.68087,11.875 4.21885,29.23256 25.91751,51.80989 55.51877,57.76696 4.31324,0.86801 7.24232,1.13842 12.23214,1.12924 6.22375,-0.0114 10.31637,-0.52157 16.37106,-2.04059 9.76543,-2.44999 19.0756,-7.08172 27.11535,-13.48966 3.03836,-2.42167 8.32228,-7.68654 10.63644,-10.5981 3.14737,-3.95984 6.05666,-8.56901 7.88997,-12.5 0.97043,-2.0808 3.79075,-8.93921 3.79075,-9.21829 0,-0.11146 -0.24365,-0.30358 -0.54144,-0.42693 -0.29779,-0.12335 -0.4995,-0.26621 -0.44825,-0.31747 0.0513,-0.0512 0.41057,0.0499 0.79848,0.22485 l 0.70529,0.31804 -0.67952,1.8974 c -1.21579,3.39487 -1.85002,4.88011 -3.5172,8.23669 -8.98497,18.08964 -25.52817,31.3956 -45.15664,36.32022 -2.45255,0.61532 -6.13595,1.27859 -9.01786,1.62383 -2.27318,0.27232 -10.00055,0.49712 -11.78572,0.34287 z"
         id="path145"
         transform="matrix(0.75012777,0,0,0.75012777,-40.721139,-42.866268)" />
      <path
         style="fill:#4891d3;fill-opacity:1;stroke-width:0.00789182"
         d=""
         id="path147"
         transform="matrix(0.75012777,0,0,0.75012777,-40.721139,-42.866268)" />
      <path
         style="fill:#4891d3;fill-opacity:1;stroke-width:0.00789182"
         d=""
         id="path149"
         transform="matrix(0.75012777,0,0,0.75012777,-40.721139,-42.866268)" />
      <path
         style="fill:#4891d3;fill-opacity:1;stroke-width:0.00789182"
         d=""
         id="path151"
         transform="matrix(0.75012777,0,0,0.75012777,-40.721139,-42.866268)" />
      <path
         style="fill:#57b7eb;fill-opacity:1;stroke-width:0.00789182"
         d=""
         id="path153"
         transform="matrix(0.75012777,0,0,0.75012777,-40.721139,-42.866268)" />
      <path
         style="fill:#57b7eb;fill-opacity:1;stroke-width:0.357143"
         d="m 249.753,582.42642 c -7.84111,-3.66606 -16.69081,-8.66826 -24.18025,-13.66764 l -3.69962,-2.46959 8.36862,-8.44805 c 5.10948,-5.15797 8.63239,-9.0044 9.04591,-9.87662 0.43975,-0.92754 0.7256,-2.4701 0.81503,-4.39821 0.12758,-2.75048 0.055,-3.13776 -0.98375,-5.24772 -1.82835,-3.71389 -5.37795,-5.88978 -9.60821,-5.88978 -4.33552,0 -4.60984,0.19386 -15.30162,10.81388 l -9.70612,9.64098 -7.81463,-7.81672 c -10.72343,-10.72629 -17.76392,-19.33117 -25.53557,-31.20957 -3.12861,-4.78185 -7.79081,-12.62152 -8.30409,-13.96366 -0.25573,-0.66869 1.88902,-1.5411 7.31653,-2.97612 19.28341,-5.09849 39.22161,-1.60348 56.52828,9.90898 5.06535,3.36949 6.94767,4.052 10.14025,3.67678 2.13813,-0.2513 4.90645,-1.49512 5.98571,-2.68942 l 0.68996,-0.7635 1.57292,1.52847 c 4.41428,4.28952 10.05763,12.16865 13.37317,18.67132 3.66174,7.18168 5.82163,13.34696 7.40164,21.12753 0.89994,4.43168 0.90596,4.76533 0.086,4.76533 -1.70478,0 -4.2491,1.28175 -5.97977,3.01242 -2.47705,2.47705 -2.97749,4.09053 -3.38576,10.91615 -0.35584,5.94883 -0.93195,9.778 -2.15067,14.29465 -0.42269,1.56651 -0.7911,2.84617 -0.81869,2.84368 -0.0276,-0.002 -1.76245,-0.8051 -3.85525,-1.78357 z"
         id="path155"
         transform="matrix(0.75012777,0,0,0.75012777,-40.721139,-42.866268)" />
      <path
         style="fill:#4891d3;fill-opacity:1;stroke:#4891d3;stroke-width:0;stroke-linecap:butt;stroke-linejoin:miter;stroke-miterlimit:4;stroke-dasharray:none;stroke-opacity:1"
         d="m 72.281956,312.49783 c 5.674129,53.99242 62.607354,79.63257 136.886294,95.67851 l -97.58295,45.27937 -82.594039,-38.64492 9.092921,-81.07855 z"
         id="path159"
         sodipodi:nodetypes="cccccc" />
      <path
         style="fill:#57b7eb;fill-opacity:1;stroke:#000000;stroke-width:0;stroke-linecap:butt;stroke-linejoin:miter;stroke-miterlimit:4;stroke-dasharray:none;stroke-opacity:1"
         d="m 83.92766,308.7267 34.2879,-7.76686 71.98563,22.7323 2.27323,80.69968 C 149.11565,392.70453 102.25821,401.13456 72.281956,312.49783 Z"
         id="path2916"
         sodipodi:nodetypes="cccccc" />
    </g>
  </g>
</svg>
